<svg width="338" height="215" viewBox="0 0 338 215" fill="none" xmlns="http://www.w3.org/2000/svg">
<path d="M86.5347 72.5415H0.145508V62.2876H86.5347V72.5415ZM79.4424 103.218C79.4424 106.579 77.4201 110.367 73.3755 114.583C69.9575 118.171 66.3687 120.849 62.6089 122.615L49.7915 108.088C53.6652 107.747 57.3395 106.322 60.8145 103.816C64.8021 100.968 66.7959 97.7205 66.7959 94.0747C66.7959 92.1379 65.5426 90.4858 63.0361 89.1187C60.8714 87.8654 58.7352 87.2388 56.6274 87.2388C52.241 87.2388 47.5413 89.3465 42.5283 93.562C32.3314 102.107 27.2329 111.563 27.2329 121.931V158.162L10.8267 149.617V86.3843H27.4038V92.8784C29.8534 90.4289 34.9233 87.8654 42.6138 85.188C46.3735 83.8778 50.2472 83.2227 54.2349 83.2227C62.495 83.2227 69.5018 86.3843 75.2554 92.7075C78.0467 95.7837 79.4424 99.2871 79.4424 103.218ZM168.566 72.5415H111.657V86.2134C111.885 86.2134 112.112 86.3273 112.34 86.5552C112.568 86.783 112.768 86.897 112.938 86.897C112.483 86.897 112.226 86.8685 112.169 86.8115C112.169 86.5267 116.413 85.6152 124.901 84.0771C128.035 83.5075 131.139 83.2227 134.215 83.2227C147.033 83.2227 155.264 86.8115 158.91 93.9893C161.36 98.7744 162.584 108.43 162.584 122.957V155.854C161.388 155.399 156.859 153.547 148.998 150.3C148.998 148.477 148.628 147.31 147.887 146.797C144.868 148.563 142.39 149.902 140.453 150.813C134.301 153.718 127.152 155.171 119.005 155.171C107.783 155.171 99.1242 151.639 93.0288 144.575C90.0666 141.157 88.5854 137.34 88.5854 133.125C88.5854 128.397 90.9211 123.697 95.5923 119.026C104.65 109.968 115.901 105.439 129.345 105.439C137.491 105.439 144.042 107.319 148.998 111.079V103.218C146.492 100.028 144.042 97.8914 141.649 96.8091C139.314 95.7267 136.095 95.2425 131.994 95.3564C122.822 95.5273 114.42 97.2078 106.786 100.398C103.368 101.822 100.036 103.104 96.7886 104.243V97.9199C97.5291 97.2933 98.6115 96.3534 100.036 95.1001C100.264 94.8153 100.406 94.6444 100.463 94.5874V72.5415H82.9458V62.2876H168.566V72.5415ZM148.998 126.631C148.998 124.124 146.007 121.874 140.026 119.88C135.07 118.228 130.94 117.402 127.636 117.402C115.616 117.402 105.989 121.732 98.7539 130.391C95.8486 133.866 94.396 136.714 94.396 138.936C95.5923 143.094 100.292 145.173 108.495 145.173C119.091 145.173 128.775 142.524 137.548 137.227C145.181 132.612 148.998 129.08 148.998 126.631ZM257.177 168.843C257.177 179.438 252.05 184.736 241.796 184.736C237.239 184.736 230.631 182.572 221.972 178.242C212.401 173.457 204.369 171.064 197.875 171.064C183.918 171.064 170.759 176.562 158.397 187.556C152.473 192.854 147.83 199.092 144.469 206.27C144.241 205.358 144.127 203.905 144.127 201.912C144.127 195.076 146.178 188.268 150.28 181.489C154.04 175.223 158.91 169.982 164.892 165.767C171.614 161.038 179.276 158.674 187.877 158.674C193.802 158.674 198.957 159.671 203.344 161.665C205.679 162.747 210.18 165.539 216.845 170.039C222.541 173.913 226.899 175.85 229.918 175.85C237.438 175.85 243.419 172.745 247.863 166.536C249.8 163.858 250.768 161.238 250.768 158.674C250.768 154.174 249.401 150.414 246.667 147.395C243.932 144.319 240.343 142.781 235.9 142.781C231.798 142.781 225.048 144.86 215.648 149.019C206.249 153.12 199.499 155.171 195.397 155.171C192.378 155.171 188.732 153.661 184.459 150.642C175.573 144.319 171.129 138.423 171.129 132.954C171.129 129.935 172.81 127.172 176.171 124.666C179.19 122.33 182.295 121.02 185.485 120.735L185.656 119.795L181.469 113.899C179.133 110.595 177.965 107.035 177.965 103.218C177.965 90.1156 188.675 83.5645 210.094 83.5645C210.721 83.4505 211.148 82.9378 211.376 82.0264V72.5415H167.113V62.2876H254.955V72.5415H224.621V86.897C224.621 89.5744 225.39 91.2264 226.928 91.853C227.896 91.853 229.121 90.9701 230.602 89.2041L233.849 85.2734C234.704 84.4189 236.242 83.8493 238.463 83.5645C242.052 83.5645 245.47 85.6152 248.717 89.7168C250.198 91.5967 251.167 93.4766 251.623 95.3564L242.65 105.61C242.536 102.99 241.995 100.597 241.027 98.4326C239.717 95.5273 238.008 94.0747 235.9 94.0747C235.102 94.0747 234.162 94.445 233.08 95.1855C231.998 95.9261 231.457 96.6667 231.457 97.4072C231.457 98.2617 231.827 99.2871 232.567 100.483C233.422 101.908 233.906 102.791 234.02 103.132C234.419 104.443 234.618 106.095 234.618 108.088C234.618 115.779 231.485 120.991 225.219 123.726C221.06 125.549 214.509 126.46 205.565 126.46C194.172 126.46 186.396 128.995 182.238 134.065C180.586 136.059 179.788 137.682 179.845 138.936C179.902 140.645 180.757 142.154 182.409 143.464C184.061 144.718 185.77 145.344 187.536 145.344C190.783 145.344 197.021 143.094 206.249 138.594C217.13 133.296 225.902 130.59 232.567 130.476C238.663 130.362 243.79 133.068 247.948 138.594C251.309 142.98 253.73 148.563 255.211 155.342C256.522 161.323 257.177 165.824 257.177 168.843ZM223.937 100.227C223.937 93.3341 220.263 89.8877 212.914 89.8877C206.99 89.8877 201.378 91.967 196.081 96.1255C190.384 100.569 187.536 105.667 187.536 111.421C187.536 114.554 188.732 117.231 191.125 119.453C193.574 121.675 196.365 122.786 199.499 122.786C202.746 122.843 206.42 121.675 210.521 119.282C214.167 117.174 217.187 114.725 219.579 111.934C222.484 108.516 223.937 104.613 223.937 100.227ZM337.072 72.5415H280.163V86.2134C280.39 86.2134 280.618 86.3273 280.846 86.5552C281.074 86.783 281.273 86.897 281.444 86.897C280.989 86.897 280.732 86.8685 280.675 86.8115C280.675 86.5267 284.919 85.6152 293.407 84.0771C296.54 83.5075 299.645 83.2227 302.721 83.2227C315.539 83.2227 323.77 86.8115 327.416 93.9893C329.866 98.7744 331.09 108.43 331.09 122.957V155.854C329.894 155.399 325.365 153.547 317.504 150.3C317.504 148.477 317.134 147.31 316.393 146.797C313.374 148.563 310.896 149.902 308.959 150.813C302.807 153.718 295.657 155.171 287.511 155.171C276.289 155.171 267.63 151.639 261.535 144.575C258.572 141.157 257.091 137.34 257.091 133.125C257.091 128.397 259.427 123.697 264.098 119.026C273.156 109.968 284.407 105.439 297.851 105.439C305.997 105.439 312.548 107.319 317.504 111.079V103.218C314.997 100.028 312.548 97.8914 310.155 96.8091C307.82 95.7267 304.601 95.2425 300.5 95.3564C291.328 95.5273 282.925 97.2078 275.292 100.398C271.874 101.822 268.542 103.104 265.294 104.243V97.9199C266.035 97.2933 267.117 96.3534 268.542 95.1001C268.769 94.8153 268.912 94.6444 268.969 94.5874V72.5415H251.452V62.2876H337.072V72.5415ZM317.504 126.631C317.504 124.124 314.513 121.874 308.532 119.88C303.576 118.228 299.446 117.402 296.142 117.402C284.122 117.402 274.494 121.732 267.26 130.391C264.354 133.866 262.902 136.714 262.902 138.936C264.098 143.094 268.798 145.173 277.001 145.173C287.597 145.173 297.281 142.524 306.054 137.227C313.687 132.612 317.504 129.08 317.504 126.631Z" fill="url(#paint0_linear_24_7)"/>
<defs>
<linearGradient id="paint0_linear_24_7" x1="81.5" y1="72.5" x2="337.026" y2="107.812" gradientUnits="userSpaceOnUse">
<stop stop-color="#F26B55"/>
<stop offset="1" stop-color="#FFAD21"/>
</linearGradient>
</defs>
</svg>
